<?xml version="1.0" encoding="UTF-8"?>
<svg xmlns="http://www.w3.org/2000/svg" xmlns:xlink="http://www.w3.org/1999/xlink" width="500" height="300" viewBox="0 0 500 300">
<defs>
<g>
<g id="glyph-0-0-54a29e9b">
<path d="M 9.046875 0 C 9.046875 0 7.578125 0 7.578125 0 C 7.578125 0 2.296875 -8.28125 2.296875 -8.28125 C 2.296875 -8.28125 2.296875 0 2.296875 0 C 2.296875 0 1.0625 0 1.0625 0 C 1.0625 0 1.0625 -10.203125 1.0625 -10.203125 C 1.0625 -10.203125 2.484375 -10.203125 2.484375 -10.203125 C 2.484375 -10.203125 7.8125 -1.859375 7.8125 -1.859375 C 7.8125 -1.859375 7.8125 -10.203125 7.8125 -10.203125 C 7.8125 -10.203125 9.046875 -10.203125 9.046875 -10.203125 C 9.046875 -10.203125 9.046875 0 9.046875 0 Z M 9.046875 0 "/>
</g>
<g id="glyph-0-1-54a29e9b">
<path d="M 7.140625 -3.609375 C 7.140625 -1.203125 5.875 0.203125 3.828125 0.203125 C 1.734375 0.203125 0.5 -1.203125 0.5 -3.671875 C 0.5 -6.125 1.75 -7.546875 3.8125 -7.546875 C 5.921875 -7.546875 7.140625 -6.140625 7.140625 -3.609375 Z M 5.921875 -3.625 C 5.921875 -5.453125 5.140625 -6.46875 3.828125 -6.46875 C 2.515625 -6.46875 1.71875 -5.4375 1.71875 -3.671875 C 1.71875 -1.890625 2.515625 -0.875 3.828125 -0.875 C 5.109375 -0.875 5.921875 -1.90625 5.921875 -3.625 Z M 5.921875 -3.625 "/>
</g>
<g id="glyph-0-2-54a29e9b">
<path d="M 6.9375 0 C 6.9375 0 5.890625 0 5.890625 0 C 5.890625 0 5.890625 -1.078125 5.890625 -1.078125 C 5.265625 -0.171875 4.5625 0.203125 3.5625 0.203125 C 1.578125 0.203125 0.359375 -1.265625 0.359375 -3.734375 C 0.359375 -6.078125 1.609375 -7.546875 3.515625 -7.546875 C 4.5 -7.546875 5.28125 -7.15625 5.765625 -6.40625 C 5.765625 -6.40625 5.765625 -10.203125 5.765625 -10.203125 C 5.765625 -10.203125 6.9375 -10.203125 6.9375 -10.203125 C 6.9375 -10.203125 6.9375 0 6.9375 0 Z M 5.765625 -3.640625 C 5.765625 -5.328125 4.96875 -6.453125 3.703125 -6.453125 C 2.4375 -6.453125 1.578125 -5.375 1.578125 -3.671875 C 1.578125 -1.953125 2.4375 -0.875 3.71875 -0.875 C 4.953125 -0.875 5.765625 -1.953125 5.765625 -3.640625 Z M 5.765625 -3.640625 "/>
</g>
<g id="glyph-0-3-54a29e9b">
<path d="M 7.1875 -3.328125 C 7.1875 -3.328125 1.78125 -3.328125 1.78125 -3.328125 C 1.8125 -1.65625 2.71875 -0.875 3.9375 -0.875 C 4.875 -0.875 5.53125 -1.265625 5.859375 -2.21875 C 5.859375 -2.21875 7.03125 -2.21875 7.03125 -2.21875 C 6.734375 -0.734375 5.578125 0.203125 3.890625 0.203125 C 1.828125 0.203125 0.5625 -1.21875 0.5625 -3.625 C 0.5625 -6.03125 1.875 -7.546875 3.921875 -7.546875 C 5.296875 -7.546875 6.40625 -6.8125 6.890625 -5.609375 C 7.09375 -5.0625 7.1875 -4.390625 7.1875 -3.328125 Z M 5.9375 -4.375 C 5.9375 -5.515625 5.046875 -6.46875 3.90625 -6.46875 C 2.734375 -6.46875 1.90625 -5.59375 1.8125 -4.28125 C 1.8125 -4.28125 5.921875 -4.28125 5.921875 -4.28125 C 5.9375 -4.3125 5.9375 -4.375 5.9375 -4.375 Z M 5.9375 -4.375 "/>
</g>
<g id="glyph-0-4-54a29e9b">
<path d="M 4.859375 0 C 4.859375 0 3.625 0 3.625 0 C 3.625 0 3.625 -7.0625 3.625 -7.0625 C 3.625 -7.0625 1.421875 -7.0625 1.421875 -7.0625 C 1.421875 -7.0625 1.421875 -7.953125 1.421875 -7.953125 C 3.328125 -8.1875 3.609375 -8.40625 4.046875 -9.921875 C 4.046875 -9.921875 4.859375 -9.921875 4.859375 -9.921875 C 4.859375 -9.921875 4.859375 0 4.859375 0 Z M 4.859375 0 "/>
</g>
<g id="glyph-0-5-54a29e9b">
<path d="M 7.15625 -7.015625 C 7.15625 -5.796875 6.4375 -4.765625 5.046875 -4.015625 C 5.046875 -4.015625 3.65625 -3.265625 3.65625 -3.265625 C 2.4375 -2.546875 1.984375 -2.03125 1.859375 -1.21875 C 1.859375 -1.21875 7.078125 -1.21875 7.078125 -1.21875 C 7.078125 -1.21875 7.078125 0 7.078125 0 C 7.078125 0 0.46875 0 0.46875 0 C 0.59375 -2.1875 1.1875 -3.125 3.265625 -4.296875 C 3.265625 -4.296875 4.546875 -5.03125 4.546875 -5.03125 C 5.4375 -5.53125 5.890625 -6.203125 5.890625 -6.984375 C 5.890625 -8.046875 5.046875 -8.84375 3.9375 -8.84375 C 2.71875 -8.84375 2.03125 -8.140625 1.9375 -6.484375 C 1.9375 -6.484375 0.703125 -6.484375 0.703125 -6.484375 C 0.765625 -8.890625 1.953125 -9.921875 3.96875 -9.921875 C 5.859375 -9.921875 7.15625 -8.6875 7.15625 -7.015625 Z M 7.15625 -7.015625 "/>
</g>
<g id="glyph-0-6-54a29e9b">
<path d="M 7.078125 -2.890625 C 7.078125 -1.015625 5.765625 0.203125 3.71875 0.203125 C 1.6875 0.203125 0.609375 -0.78125 0.453125 -3 C 0.453125 -3 1.6875 -3 1.6875 -3 C 1.765625 -1.546875 2.421875 -0.875 3.765625 -0.875 C 5.046875 -0.875 5.828125 -1.625 5.828125 -2.875 C 5.828125 -3.96875 5.125 -4.625 3.765625 -4.625 C 3.765625 -4.625 3.09375 -4.625 3.09375 -4.625 C 3.09375 -4.625 3.09375 -5.65625 3.09375 -5.65625 C 5.0625 -5.65625 5.53125 -6.09375 5.53125 -7.15625 C 5.53125 -8.203125 4.875 -8.84375 3.78125 -8.84375 C 2.515625 -8.84375 1.921875 -8.1875 1.890625 -6.71875 C 1.890625 -6.71875 0.65625 -6.71875 0.65625 -6.71875 C 0.703125 -8.828125 1.765625 -9.921875 3.765625 -9.921875 C 5.65625 -9.921875 6.796875 -8.90625 6.796875 -7.203125 C 6.796875 -6.203125 6.328125 -5.5625 5.40625 -5.1875 C 6.59375 -4.78125 7.078125 -4.09375 7.078125 -2.890625 Z M 7.078125 -2.890625 "/>
</g>
<g id="glyph-0-7-54a29e9b">
<path d="M 7.28125 -2.375 C 7.28125 -2.375 5.8125 -2.375 5.8125 -2.375 C 5.8125 -2.375 5.8125 0 5.8125 0 C 5.8125 0 4.578125 0 4.578125 0 C 4.578125 0 4.578125 -2.375 4.578125 -2.375 C 4.578125 -2.375 0.390625 -2.375 0.390625 -2.375 C 0.390625 -2.375 0.390625 -3.6875 0.390625 -3.6875 C 0.390625 -3.6875 4.90625 -9.921875 4.90625 -9.921875 C 4.90625 -9.921875 5.8125 -9.921875 5.8125 -9.921875 C 5.8125 -9.921875 5.8125 -3.484375 5.8125 -3.484375 C 5.8125 -3.484375 7.28125 -3.484375 7.28125 -3.484375 C 7.28125 -3.484375 7.28125 -2.375 7.28125 -2.375 Z M 4.578125 -3.484375 C 4.578125 -3.484375 4.578125 -7.828125 4.578125 -7.828125 C 4.578125 -7.828125 1.46875 -3.484375 1.46875 -3.484375 C 1.46875 -3.484375 4.578125 -3.484375 4.578125 -3.484375 Z M 4.578125 -3.484375 "/>
</g>
<g id="glyph-1-0-54a29e9b">
<path d="M -9.0625 -8.296875 C -9.0625 -8.296875 -9.0625 -4.953125 -9.0625 -4.953125 C -9.0625 -4.953125 0 -4.953125 0 -4.953125 C 0 -4.953125 0 -3.65625 0 -3.65625 C 0 -3.65625 -9.0625 -3.65625 -9.0625 -3.65625 C -9.0625 -3.65625 -9.0625 -0.296875 -9.0625 -0.296875 C -9.0625 -0.296875 -10.203125 -0.296875 -10.203125 -0.296875 C -10.203125 -0.296875 -10.203125 -8.296875 -10.203125 -8.296875 C -10.203125 -8.296875 -9.0625 -8.296875 -9.0625 -8.296875 Z M -9.0625 -8.296875 "/>
</g>
<g id="glyph-2-0-54a29e9b">
<path d="M -3.328125 -7.1875 C -3.328125 -7.1875 -3.328125 -1.78125 -3.328125 -1.78125 C -1.65625 -1.8125 -0.875 -2.71875 -0.875 -3.9375 C -0.875 -4.875 -1.265625 -5.53125 -2.21875 -5.859375 C -2.21875 -5.859375 -2.21875 -7.03125 -2.21875 -7.03125 C -0.734375 -6.734375 0.203125 -5.578125 0.203125 -3.890625 C 0.203125 -1.828125 -1.21875 -0.5625 -3.625 -0.5625 C -6.03125 -0.5625 -7.546875 -1.875 -7.546875 -3.921875 C -7.546875 -5.296875 -6.8125 -6.40625 -5.609375 -6.890625 C -5.0625 -7.09375 -4.390625 -7.1875 -3.328125 -7.1875 Z M -4.375 -5.9375 C -5.515625 -5.9375 -6.46875 -5.046875 -6.46875 -3.90625 C -6.46875 -2.734375 -5.59375 -1.90625 -4.28125 -1.8125 C -4.28125 -1.8125 -4.28125 -5.921875 -4.28125 -5.921875 C -4.3125 -5.9375 -4.375 -5.9375 -4.375 -5.9375 Z M -4.375 -5.9375 "/>
</g>
<g id="glyph-2-1-54a29e9b">
<path d="M 0 -10.640625 C 0 -10.640625 0 -9.484375 0 -9.484375 C 0 -9.484375 -5.046875 -9.484375 -5.046875 -9.484375 C -5.984375 -9.484375 -6.53125 -8.984375 -6.53125 -8.140625 C -6.53125 -7.1875 -5.671875 -6.390625 -4.609375 -6.390625 C -4.609375 -6.390625 0 -6.390625 0 -6.390625 C 0 -6.390625 0 -5.234375 0 -5.234375 C 0 -5.234375 -5.046875 -5.234375 -5.046875 -5.234375 C -5.984375 -5.234375 -6.53125 -4.75 -6.53125 -3.875 C -6.53125 -2.921875 -5.671875 -2.15625 -4.609375 -2.15625 C -4.609375 -2.15625 0 -2.15625 0 -2.15625 C 0 -2.15625 0 -1 0 -1 C 0 -1 -7.34375 -1 -7.34375 -1 C -7.34375 -1 -7.34375 -2.0625 -7.34375 -2.0625 C -7.34375 -2.0625 -6.296875 -2.0625 -6.296875 -2.0625 C -7.1875 -2.6875 -7.546875 -3.328125 -7.546875 -4.3125 C -7.546875 -5.265625 -7.203125 -5.859375 -6.421875 -6.28125 C -7.25 -6.96875 -7.546875 -7.5625 -7.546875 -8.546875 C -7.546875 -9.90625 -6.8125 -10.640625 -5.5 -10.640625 C -5.5 -10.640625 0 -10.640625 0 -10.640625 Z M 0 -10.640625 "/>
</g>
<g id="glyph-2-2-54a29e9b">
<path d="M -0.03125 -7.484375 C 0.0625 -7.109375 0.09375 -6.9375 0.09375 -6.6875 C 0.09375 -6.125 -0.3125 -5.609375 -0.875 -5.484375 C -0.1875 -4.84375 0.203125 -3.9375 0.203125 -3 C 0.203125 -1.515625 -0.578125 -0.59375 -1.90625 -0.59375 C -2.796875 -0.59375 -3.453125 -1.015625 -3.8125 -1.875 C -3.984375 -2.328125 -4.046875 -2.578125 -4.25 -4.234375 C -4.375 -5.15625 -4.578125 -5.453125 -5.0625 -5.453125 C -5.0625 -5.453125 -5.375 -5.453125 -5.375 -5.453125 C -6.078125 -5.453125 -6.46875 -4.859375 -6.46875 -3.8125 C -6.46875 -2.71875 -6.0625 -2.1875 -5.171875 -2.09375 C -5.171875 -2.09375 -5.171875 -0.90625 -5.171875 -0.90625 C -6.859375 -0.984375 -7.546875 -2.078125 -7.546875 -3.84375 C -7.546875 -5.65625 -6.84375 -6.609375 -5.546875 -6.609375 C -5.546875 -6.609375 -1.453125 -6.609375 -1.453125 -6.609375 C -1.09375 -6.609375 -0.875 -6.828125 -0.875 -7.234375 C -0.875 -7.3125 -0.875 -7.359375 -0.90625 -7.484375 C -0.90625 -7.484375 -0.03125 -7.484375 -0.03125 -7.484375 Z M -2.53125 -5.453125 C -2.53125 -5.453125 -3.625 -5.453125 -3.625 -5.453125 C -3.4375 -5.046875 -3.390625 -4.796875 -3.21875 -3.5625 C -3.03125 -2.328125 -2.703125 -1.8125 -1.9375 -1.8125 C -1.140625 -1.8125 -0.8125 -2.34375 -0.8125 -3.25 C -0.8125 -4.375 -1.484375 -5.453125 -2.53125 -5.453125 Z M -2.53125 -5.453125 "/>
</g>
<g id="glyph-3-0-54a29e9b">
<path d="M -3.59375 -7.328125 C -1.265625 -7.328125 0.203125 -6.078125 0.203125 -4.1875 C 0.203125 -3.234375 -0.125 -2.546875 -0.875 -1.9375 C -0.875 -1.9375 3.046875 -1.9375 3.046875 -1.9375 C 3.046875 -1.9375 3.046875 -0.765625 3.046875 -0.765625 C 3.046875 -0.765625 -7.34375 -0.765625 -7.34375 -0.765625 C -7.34375 -0.765625 -7.34375 -1.828125 -7.34375 -1.828125 C -7.34375 -1.828125 -6.234375 -1.828125 -6.234375 -1.828125 C -7.09375 -2.375 -7.546875 -3.171875 -7.546875 -4.171875 C -7.546875 -6.125 -6.0625 -7.328125 -3.59375 -7.328125 Z M -3.625 -6.109375 C -5.375 -6.109375 -6.453125 -5.265625 -6.453125 -3.96875 C -6.453125 -2.75 -5.328125 -1.9375 -3.609375 -1.9375 C -1.890625 -1.9375 -0.875 -2.75 -0.875 -3.96875 C -0.875 -5.25 -1.953125 -6.109375 -3.625 -6.109375 Z M -3.625 -6.109375 "/>
</g>
<g id="glyph-3-1-54a29e9b">
<path d="M -3.328125 -7.1875 C -3.328125 -7.1875 -3.328125 -1.78125 -3.328125 -1.78125 C -1.65625 -1.8125 -0.875 -2.71875 -0.875 -3.9375 C -0.875 -4.875 -1.265625 -5.53125 -2.21875 -5.859375 C -2.21875 -5.859375 -2.21875 -7.03125 -2.21875 -7.03125 C -0.734375 -6.734375 0.203125 -5.578125 0.203125 -3.890625 C 0.203125 -1.828125 -1.21875 -0.5625 -3.625 -0.5625 C -6.03125 -0.5625 -7.546875 -1.875 -7.546875 -3.921875 C -7.546875 -5.296875 -6.8125 -6.40625 -5.609375 -6.890625 C -5.0625 -7.09375 -4.390625 -7.1875 -3.328125 -7.1875 Z M -4.375 -5.9375 C -5.515625 -5.9375 -6.46875 -5.046875 -6.46875 -3.90625 C -6.46875 -2.734375 -5.59375 -1.90625 -4.28125 -1.8125 C -4.28125 -1.8125 -4.28125 -5.921875 -4.28125 -5.921875 C -4.3125 -5.9375 -4.375 -5.9375 -4.375 -5.9375 Z M -4.375 -5.9375 "/>
</g>
<g id="glyph-4-0-54a29e9b">
<path d="M -6.3125 -4.5 C -6.28125 -2.6875 -5.453125 -2.140625 -3.8125 -2.140625 C -3.8125 -2.140625 0 -2.140625 0 -2.140625 C 0 -2.140625 0 -0.984375 0 -0.984375 C 0 -0.984375 -7.34375 -0.984375 -7.34375 -0.984375 C -7.34375 -0.984375 -7.34375 -2.046875 -7.34375 -2.046875 C -7.34375 -2.046875 -6 -2.046875 -6 -2.046875 C -7.09375 -2.71875 -7.546875 -3.296875 -7.546875 -4.046875 C -7.546875 -4.203125 -7.53125 -4.296875 -7.5 -4.5 C -7.5 -4.5 -6.3125 -4.5 -6.3125 -4.5 Z M -6.3125 -4.5 "/>
</g>
<g id="glyph-4-1-54a29e9b">
<path d="M 2.96875 -3.5 C 2.96875 -3.5 2.96875 -0.890625 2.96875 -0.890625 C 2.96875 -0.890625 -10.203125 -0.890625 -10.203125 -0.890625 C -10.203125 -0.890625 -10.203125 -3.5 -10.203125 -3.5 C -10.203125 -3.5 -9.203125 -3.5 -9.203125 -3.5 C -9.203125 -3.5 -9.203125 -2.0625 -9.203125 -2.0625 C -9.203125 -2.0625 1.953125 -2.0625 1.953125 -2.0625 C 1.953125 -2.0625 1.953125 -3.5 1.953125 -3.5 C 1.953125 -3.5 2.96875 -3.5 2.96875 -3.5 Z M 2.96875 -3.5 "/>
</g>
<g id="glyph-5-0-54a29e9b">
<path d="M 0 -3.5625 C 0.0625 -3.15625 0.09375 -2.890625 0.09375 -2.609375 C 0.09375 -1.6875 -0.328125 -1.1875 -1.0625 -1.1875 C -1.0625 -1.1875 -6.390625 -1.1875 -6.390625 -1.1875 C -6.390625 -1.1875 -6.390625 -0.203125 -6.390625 -0.203125 C -6.390625 -0.203125 -7.34375 -0.203125 -7.34375 -0.203125 C -7.34375 -0.203125 -7.34375 -1.1875 -7.34375 -1.1875 C -7.34375 -1.1875 -9.359375 -1.1875 -9.359375 -1.1875 C -9.359375 -1.1875 -9.359375 -2.359375 -9.359375 -2.359375 C -9.359375 -2.359375 -7.34375 -2.359375 -7.34375 -2.359375 C -7.34375 -2.359375 -7.34375 -3.5625 -7.34375 -3.5625 C -7.34375 -3.5625 -6.390625 -3.5625 -6.390625 -3.5625 C -6.390625 -3.5625 -6.390625 -2.359375 -6.390625 -2.359375 C -6.390625 -2.359375 -1.578125 -2.359375 -1.578125 -2.359375 C -1.0625 -2.359375 -0.921875 -2.484375 -0.921875 -3 C -0.921875 -3.21875 -0.9375 -3.40625 -0.984375 -3.5625 C -0.984375 -3.5625 0 -3.5625 0 -3.5625 Z M 0 -3.5625 "/>
</g>
<g id="glyph-6-0-54a29e9b">
<path d="M 0 -6.75 C 0 -6.75 0 -5.703125 0 -5.703125 C 0 -5.703125 -1.140625 -5.703125 -1.140625 -5.703125 C -0.171875 -5.015625 0.203125 -4.328125 0.203125 -3.25 C 0.203125 -1.8125 -0.578125 -0.90625 -1.796875 -0.90625 C -1.796875 -0.90625 -7.34375 -0.90625 -7.34375 -0.90625 C -7.34375 -0.90625 -7.34375 -2.078125 -7.34375 -2.078125 C -7.34375 -2.078125 -2.25 -2.078125 -2.25 -2.078125 C -1.375 -2.078125 -0.8125 -2.65625 -0.8125 -3.578125 C -0.8125 -4.796875 -1.796875 -5.59375 -3.296875 -5.59375 C -3.296875 -5.59375 -7.34375 -5.59375 -7.34375 -5.59375 C -7.34375 -5.59375 -7.34375 -6.75 -7.34375 -6.75 C -7.34375 -6.75 0 -6.75 0 -6.75 Z M 0 -6.75 "/>
</g>
<g id="glyph-6-1-54a29e9b">
<path d="M -6.3125 -4.5 C -6.28125 -2.6875 -5.453125 -2.140625 -3.8125 -2.140625 C -3.8125 -2.140625 0 -2.140625 0 -2.140625 C 0 -2.140625 0 -0.984375 0 -0.984375 C 0 -0.984375 -7.34375 -0.984375 -7.34375 -0.984375 C -7.34375 -0.984375 -7.34375 -2.046875 -7.34375 -2.046875 C -7.34375 -2.046875 -6 -2.046875 -6 -2.046875 C -7.09375 -2.71875 -7.546875 -3.296875 -7.546875 -4.046875 C -7.546875 -4.203125 -7.53125 -4.296875 -7.5 -4.5 C -7.5 -4.5 -6.3125 -4.5 -6.3125 -4.5 Z M -6.3125 -4.5 "/>
</g>
<g id="glyph-6-2-54a29e9b">
<path d="M 2.96875 -2.921875 C 2.96875 -2.921875 2.96875 -0.328125 2.96875 -0.328125 C 2.96875 -0.328125 1.953125 -0.328125 1.953125 -0.328125 C 1.953125 -0.328125 1.953125 -1.765625 1.953125 -1.765625 C 1.953125 -1.765625 -9.203125 -1.765625 -9.203125 -1.765625 C -9.203125 -1.765625 -9.203125 -0.328125 -9.203125 -0.328125 C -9.203125 -0.328125 -10.203125 -0.328125 -10.203125 -0.328125 C -10.203125 -0.328125 -10.203125 -2.921875 -10.203125 -2.921875 C -10.203125 -2.921875 2.96875 -2.921875 2.96875 -2.921875 Z M 2.96875 -2.921875 "/>
</g>
<g id="glyph-7-0-54a29e9b">
<path d="M -3.328125 -7.1875 C -3.328125 -7.1875 -3.328125 -1.78125 -3.328125 -1.78125 C -1.65625 -1.8125 -0.875 -2.71875 -0.875 -3.9375 C -0.875 -4.875 -1.265625 -5.53125 -2.21875 -5.859375 C -2.21875 -5.859375 -2.21875 -7.03125 -2.21875 -7.03125 C -0.734375 -6.734375 0.203125 -5.578125 0.203125 -3.890625 C 0.203125 -1.828125 -1.21875 -0.5625 -3.625 -0.5625 C -6.03125 -0.5625 -7.546875 -1.875 -7.546875 -3.921875 C -7.546875 -5.296875 -6.8125 -6.40625 -5.609375 -6.890625 C -5.0625 -7.09375 -4.390625 -7.1875 -3.328125 -7.1875 Z M -4.375 -5.9375 C -5.515625 -5.9375 -6.46875 -5.046875 -6.46875 -3.90625 C -6.46875 -2.734375 -5.59375 -1.90625 -4.28125 -1.8125 C -4.28125 -1.8125 -4.28125 -5.921875 -4.28125 -5.921875 C -4.3125 -5.9375 -4.375 -5.9375 -4.375 -5.9375 Z M -4.375 -5.9375 "/>
</g>
<g id="glyph-7-1-54a29e9b">
</g>
<g id="glyph-8-0-54a29e9b">
<path d="M 0 -9.21875 C 0 -9.21875 0 -7.671875 0 -7.671875 C 0 -7.671875 -5.234375 -4.078125 -5.234375 -4.078125 C -5.234375 -4.078125 -3.5625 -2.40625 -3.5625 -2.40625 C -3.5625 -2.40625 0 -2.40625 0 -2.40625 C 0 -2.40625 0 -1.109375 0 -1.109375 C 0 -1.109375 -10.203125 -1.109375 -10.203125 -1.109375 C -10.203125 -1.109375 -10.203125 -2.40625 -10.203125 -2.40625 C -10.203125 -2.40625 -5.046875 -2.40625 -5.046875 -2.40625 C -5.046875 -2.40625 -10.203125 -7.484375 -10.203125 -7.484375 C -10.203125 -7.484375 -10.203125 -9.171875 -10.203125 -9.171875 C -10.203125 -9.171875 -6.046875 -5.015625 -6.046875 -5.015625 C -6.046875 -5.015625 0 -9.21875 0 -9.21875 Z M 0 -9.21875 "/>
</g>
<g id="glyph-9-0-54a29e9b">
<path d="M 7.078125 -2.890625 C 7.078125 -1.015625 5.765625 0.203125 3.71875 0.203125 C 1.6875 0.203125 0.609375 -0.78125 0.453125 -3 C 0.453125 -3 1.6875 -3 1.6875 -3 C 1.765625 -1.546875 2.421875 -0.875 3.765625 -0.875 C 5.046875 -0.875 5.828125 -1.625 5.828125 -2.875 C 5.828125 -3.96875 5.125 -4.625 3.765625 -4.625 C 3.765625 -4.625 3.09375 -4.625 3.09375 -4.625 C 3.09375 -4.625 3.09375 -5.65625 3.09375 -5.65625 C 5.0625 -5.65625 5.53125 -6.09375 5.53125 -7.15625 C 5.53125 -8.203125 4.875 -8.84375 3.78125 -8.84375 C 2.515625 -8.84375 1.921875 -8.1875 1.890625 -6.71875 C 1.890625 -6.71875 0.65625 -6.71875 0.65625 -6.71875 C 0.703125 -8.828125 1.765625 -9.921875 3.765625 -9.921875 C 5.65625 -9.921875 6.796875 -8.90625 6.796875 -7.203125 C 6.796875 -6.203125 6.328125 -5.5625 5.40625 -5.1875 C 6.59375 -4.78125 7.078125 -4.09375 7.078125 -2.890625 Z M 7.078125 -2.890625 "/>
</g>
<g id="glyph-9-1-54a29e9b">
<path d="M 7.09375 -4.78125 C 7.09375 -1.515625 5.953125 0.203125 3.84375 0.203125 C 1.71875 0.203125 0.609375 -1.515625 0.609375 -4.859375 C 0.609375 -8.1875 1.703125 -9.921875 3.84375 -9.921875 C 6 -9.921875 7.09375 -8.21875 7.09375 -4.78125 Z M 5.84375 -4.890625 C 5.84375 -7.546875 5.1875 -8.828125 3.84375 -8.828125 C 2.515625 -8.828125 1.859375 -7.5625 1.859375 -4.84375 C 1.859375 -2.125 2.515625 -0.8125 3.828125 -0.8125 C 5.1875 -0.8125 5.84375 -2.078125 5.84375 -4.890625 Z M 5.84375 -4.890625 "/>
</g>
<g id="glyph-10-0-54a29e9b">
<path d="M 7.09375 -4.78125 C 7.09375 -1.515625 5.953125 0.203125 3.84375 0.203125 C 1.71875 0.203125 0.609375 -1.515625 0.609375 -4.859375 C 0.609375 -8.1875 1.703125 -9.921875 3.84375 -9.921875 C 6 -9.921875 7.09375 -8.21875 7.09375 -4.78125 Z M 5.84375 -4.890625 C 5.84375 -7.546875 5.1875 -8.828125 3.84375 -8.828125 C 2.515625 -8.828125 1.859375 -7.5625 1.859375 -4.84375 C 1.859375 -2.125 2.515625 -0.8125 3.828125 -0.8125 C 5.1875 -0.8125 5.84375 -2.078125 5.84375 -4.890625 Z M 5.84375 -4.890625 "/>
</g>
<g id="glyph-11-0-54a29e9b">
<path d="M 7.09375 -4.78125 C 7.09375 -1.515625 5.953125 0.203125 3.84375 0.203125 C 1.71875 0.203125 0.609375 -1.515625 0.609375 -4.859375 C 0.609375 -8.1875 1.703125 -9.921875 3.84375 -9.921875 C 6 -9.921875 7.09375 -8.21875 7.09375 -4.78125 Z M 5.84375 -4.890625 C 5.84375 -7.546875 5.1875 -8.828125 3.84375 -8.828125 C 2.515625 -8.828125 1.859375 -7.5625 1.859375 -4.84375 C 1.859375 -2.125 2.515625 -0.8125 3.828125 -0.8125 C 5.1875 -0.8125 5.84375 -2.078125 5.84375 -4.890625 Z M 5.84375 -4.890625 "/>
</g>
<g id="glyph-12-0-54a29e9b">
<path d="M 7.078125 -2.890625 C 7.078125 -1.015625 5.765625 0.203125 3.71875 0.203125 C 1.6875 0.203125 0.609375 -0.78125 0.453125 -3 C 0.453125 -3 1.6875 -3 1.6875 -3 C 1.765625 -1.546875 2.421875 -0.875 3.765625 -0.875 C 5.046875 -0.875 5.828125 -1.625 5.828125 -2.875 C 5.828125 -3.96875 5.125 -4.625 3.765625 -4.625 C 3.765625 -4.625 3.09375 -4.625 3.09375 -4.625 C 3.09375 -4.625 3.09375 -5.65625 3.09375 -5.65625 C 5.0625 -5.65625 5.53125 -6.09375 5.53125 -7.15625 C 5.53125 -8.203125 4.875 -8.84375 3.78125 -8.84375 C 2.515625 -8.84375 1.921875 -8.1875 1.890625 -6.71875 C 1.890625 -6.71875 0.65625 -6.71875 0.65625 -6.71875 C 0.703125 -8.828125 1.765625 -9.921875 3.765625 -9.921875 C 5.65625 -9.921875 6.796875 -8.90625 6.796875 -7.203125 C 6.796875 -6.203125 6.328125 -5.5625 5.40625 -5.1875 C 6.59375 -4.78125 7.078125 -4.09375 7.078125 -2.890625 Z M 7.078125 -2.890625 "/>
</g>
<g id="glyph-12-1-54a29e9b">
<path d="M 7.1875 -3.296875 C 7.1875 -1.1875 5.78125 0.203125 3.78125 0.203125 C 2.015625 0.203125 0.890625 -0.578125 0.484375 -2.546875 C 0.484375 -2.546875 1.71875 -2.546875 1.71875 -2.546875 C 2.015625 -1.421875 2.671875 -0.875 3.75 -0.875 C 5.09375 -0.875 5.921875 -1.6875 5.921875 -3.125 C 5.921875 -4.59375 5.078125 -5.453125 3.75 -5.453125 C 2.984375 -5.453125 2.5 -5.203125 1.9375 -4.515625 C 1.9375 -4.515625 0.796875 -4.515625 0.796875 -4.515625 C 0.796875 -4.515625 1.546875 -9.71875 1.546875 -9.71875 C 1.546875 -9.71875 6.65625 -9.71875 6.65625 -9.71875 C 6.65625 -9.71875 6.65625 -8.5 6.65625 -8.5 C 6.65625 -8.5 2.53125 -8.5 2.53125 -8.5 C 2.53125 -8.5 2.140625 -5.9375 2.140625 -5.9375 C 2.71875 -6.359375 3.28125 -6.53125 3.96875 -6.53125 C 5.875 -6.53125 7.1875 -5.25 7.1875 -3.296875 Z M 7.1875 -3.296875 "/>
</g>
<g id="glyph-13-0-54a29e9b">
<path d="M 7.09375 -4.78125 C 7.09375 -1.515625 5.953125 0.203125 3.84375 0.203125 C 1.71875 0.203125 0.609375 -1.515625 0.609375 -4.859375 C 0.609375 -8.1875 1.703125 -9.921875 3.84375 -9.921875 C 6 -9.921875 7.09375 -8.21875 7.09375 -4.78125 Z M 5.84375 -4.890625 C 5.84375 -7.546875 5.1875 -8.828125 3.84375 -8.828125 C 2.515625 -8.828125 1.859375 -7.5625 1.859375 -4.84375 C 1.859375 -2.125 2.515625 -0.8125 3.828125 -0.8125 C 5.1875 -0.8125 5.84375 -2.078125 5.84375 -4.890625 Z M 5.84375 -4.890625 "/>
</g>
</g>
</defs>
<rect x="-50" y="-30" width="600" height="360" fill="rgb(100%, 100%, 100%)" fill-opacity="1"/>
<path fill-rule="nonzero" fill="rgb(100%, 100%, 100%)" fill-opacity="1" d="M 70 241 L 484 241 L 484 16 L 70 16 Z M 70 241 "/>
<path fill="none" stroke-width="1" stroke-linecap="butt" stroke-linejoin="miter" stroke="rgb(0%, 0%, 0%)" stroke-opacity="0.12" stroke-miterlimit="1.154701" d="M 79.855469 241 L 79.855469 16 "/>
<path fill="none" stroke-width="1" stroke-linecap="butt" stroke-linejoin="miter" stroke="rgb(0%, 0%, 0%)" stroke-opacity="0.12" stroke-miterlimit="1.154701" d="M 277 241 L 277 16 "/>
<path fill="none" stroke-width="1" stroke-linecap="butt" stroke-linejoin="miter" stroke="rgb(0%, 0%, 0%)" stroke-opacity="0.12" stroke-miterlimit="1.154701" d="M 474.144531 241 L 474.144531 16 "/>
<path fill="none" stroke-width="1" stroke-linecap="butt" stroke-linejoin="miter" stroke="rgb(0%, 0%, 0%)" stroke-opacity="0.12" stroke-miterlimit="1.154701" d="M 70 241 L 484 241 "/>
<path fill="none" stroke-width="1" stroke-linecap="butt" stroke-linejoin="miter" stroke="rgb(0%, 0%, 0%)" stroke-opacity="0.12" stroke-miterlimit="1.154701" d="M 70 196 L 484 196 "/>
<path fill="none" stroke-width="1" stroke-linecap="butt" stroke-linejoin="miter" stroke="rgb(0%, 0%, 0%)" stroke-opacity="0.12" stroke-miterlimit="1.154701" d="M 70 151 L 484 151 "/>
<path fill="none" stroke-width="1" stroke-linecap="butt" stroke-linejoin="miter" stroke="rgb(0%, 0%, 0%)" stroke-opacity="0.12" stroke-miterlimit="1.154701" d="M 70 106 L 484 106 "/>
<path fill="none" stroke-width="1" stroke-linecap="butt" stroke-linejoin="miter" stroke="rgb(0%, 0%, 0%)" stroke-opacity="0.12" stroke-miterlimit="1.154701" d="M 70 61 L 484 61 "/>
<path fill="none" stroke-width="1" stroke-linecap="butt" stroke-linejoin="miter" stroke="rgb(0%, 0%, 0%)" stroke-opacity="0.12" stroke-miterlimit="1.154701" d="M 70 16 L 484 16 "/>
<g fill="rgb(0%, 0%, 0%)" fill-opacity="1">
<use xlink:href="#glyph-0-0-54a29e9b" x="260.270013" y="281.567999"/>
</g>
<g fill="rgb(0%, 0%, 0%)" fill-opacity="1">
<use xlink:href="#glyph-0-1-54a29e9b" x="270.378013" y="281.567999"/>
</g>
<g fill="rgb(0%, 0%, 0%)" fill-opacity="1">
<use xlink:href="#glyph-0-2-54a29e9b" x="278.162014" y="281.567999"/>
</g>
<g fill="rgb(0%, 0%, 0%)" fill-opacity="1">
<use xlink:href="#glyph-0-3-54a29e9b" x="285.946015" y="281.567999"/>
</g>
<g fill="rgb(0%, 0%, 0%)" fill-opacity="1">
<use xlink:href="#glyph-0-4-54a29e9b" x="75.965143" y="262.257999"/>
</g>
<g fill="rgb(0%, 0%, 0%)" fill-opacity="1">
<use xlink:href="#glyph-0-5-54a29e9b" x="273.108013" y="262.257999"/>
</g>
<g fill="rgb(0%, 0%, 0%)" fill-opacity="1">
<use xlink:href="#glyph-0-6-54a29e9b" x="470.250875" y="262.257999"/>
</g>
<g fill="rgb(0%, 0%, 0%)" fill-opacity="1">
<use xlink:href="#glyph-1-0-54a29e9b" x="28.596001" y="179.074986"/>
</g>
<g fill="rgb(0%, 0%, 0%)" fill-opacity="1">
<use xlink:href="#glyph-2-0-54a29e9b" x="28.596002" y="170.520985"/>
</g>
<g fill="rgb(0%, 0%, 0%)" fill-opacity="1">
<use xlink:href="#glyph-2-1-54a29e9b" x="28.596002" y="162.736985"/>
</g>
<g fill="rgb(0%, 0%, 0%)" fill-opacity="1">
<use xlink:href="#glyph-3-0-54a29e9b" x="28.596003" y="151.074988"/>
</g>
<g fill="rgb(0%, 0%, 0%)" fill-opacity="1">
<use xlink:href="#glyph-3-1-54a29e9b" x="28.596003" y="143.290988"/>
</g>
<g fill="rgb(0%, 0%, 0%)" fill-opacity="1">
<use xlink:href="#glyph-4-0-54a29e9b" x="28.596004" y="135.506988"/>
</g>
<g fill="rgb(0%, 0%, 0%)" fill-opacity="1">
<use xlink:href="#glyph-2-2-54a29e9b" x="28.596004" y="130.844989"/>
</g>
<g fill="rgb(0%, 0%, 0%)" fill-opacity="1">
<use xlink:href="#glyph-5-0-54a29e9b" x="28.596004" y="123.060989"/>
</g>
<g fill="rgb(0%, 0%, 0%)" fill-opacity="1">
<use xlink:href="#glyph-6-0-54a29e9b" x="28.596005" y="119.168991"/>
</g>
<g fill="rgb(0%, 0%, 0%)" fill-opacity="1">
<use xlink:href="#glyph-6-1-54a29e9b" x="28.596005" y="111.384996"/>
</g>
<g fill="rgb(0%, 0%, 0%)" fill-opacity="1">
<use xlink:href="#glyph-7-0-54a29e9b" x="28.596005" y="106.722993"/>
</g>
<g fill="rgb(0%, 0%, 0%)" fill-opacity="1">
<use xlink:href="#glyph-7-1-54a29e9b" x="28.596006" y="98.938996"/>
</g>
<g fill="rgb(0%, 0%, 0%)" fill-opacity="1">
<use xlink:href="#glyph-4-1-54a29e9b" x="28.596006" y="95.047"/>
</g>
<g fill="rgb(0%, 0%, 0%)" fill-opacity="1">
<use xlink:href="#glyph-8-0-54a29e9b" x="28.596006" y="91.155001"/>
</g>
<g fill="rgb(0%, 0%, 0%)" fill-opacity="1">
<use xlink:href="#glyph-6-2-54a29e9b" x="28.596007" y="81.817004"/>
</g>
<g fill="rgb(0%, 0%, 0%)" fill-opacity="1">
<use xlink:href="#glyph-9-0-54a29e9b" x="36.648002" y="246.102999"/>
</g>
<g fill="rgb(0%, 0%, 0%)" fill-opacity="1">
<use xlink:href="#glyph-9-1-54a29e9b" x="44.432003" y="246.102999"/>
</g>
<g fill="rgb(0%, 0%, 0%)" fill-opacity="1">
<use xlink:href="#glyph-10-0-54a29e9b" x="52.216003" y="246.102999"/>
</g>
<g fill="rgb(0%, 0%, 0%)" fill-opacity="1">
<use xlink:href="#glyph-0-6-54a29e9b" x="36.648002" y="201.102998"/>
</g>
<g fill="rgb(0%, 0%, 0%)" fill-opacity="1">
<use xlink:href="#glyph-0-4-54a29e9b" x="44.432003" y="201.102998"/>
</g>
<g fill="rgb(0%, 0%, 0%)" fill-opacity="1">
<use xlink:href="#glyph-11-0-54a29e9b" x="52.216003" y="201.102998"/>
</g>
<g fill="rgb(0%, 0%, 0%)" fill-opacity="1">
<use xlink:href="#glyph-0-6-54a29e9b" x="36.648002" y="156.102997"/>
</g>
<g fill="rgb(0%, 0%, 0%)" fill-opacity="1">
<use xlink:href="#glyph-0-5-54a29e9b" x="44.432003" y="156.102997"/>
</g>
<g fill="rgb(0%, 0%, 0%)" fill-opacity="1">
<use xlink:href="#glyph-11-0-54a29e9b" x="52.216003" y="156.102997"/>
</g>
<g fill="rgb(0%, 0%, 0%)" fill-opacity="1">
<use xlink:href="#glyph-0-6-54a29e9b" x="36.648002" y="111.102996"/>
</g>
<g fill="rgb(0%, 0%, 0%)" fill-opacity="1">
<use xlink:href="#glyph-0-6-54a29e9b" x="44.432003" y="111.102996"/>
</g>
<g fill="rgb(0%, 0%, 0%)" fill-opacity="1">
<use xlink:href="#glyph-11-0-54a29e9b" x="52.216003" y="111.102996"/>
</g>
<g fill="rgb(0%, 0%, 0%)" fill-opacity="1">
<use xlink:href="#glyph-0-6-54a29e9b" x="36.648002" y="66.102995"/>
</g>
<g fill="rgb(0%, 0%, 0%)" fill-opacity="1">
<use xlink:href="#glyph-0-7-54a29e9b" x="44.432003" y="66.102995"/>
</g>
<g fill="rgb(0%, 0%, 0%)" fill-opacity="1">
<use xlink:href="#glyph-11-0-54a29e9b" x="52.216003" y="66.102995"/>
</g>
<g fill="rgb(0%, 0%, 0%)" fill-opacity="1">
<use xlink:href="#glyph-12-0-54a29e9b" x="36.648002" y="21.102993"/>
</g>
<g fill="rgb(0%, 0%, 0%)" fill-opacity="1">
<use xlink:href="#glyph-12-1-54a29e9b" x="44.432003" y="21.102993"/>
</g>
<g fill="rgb(0%, 0%, 0%)" fill-opacity="1">
<use xlink:href="#glyph-13-0-54a29e9b" x="52.216003" y="21.102993"/>
</g>
<path fill="none" stroke-width="1.5" stroke-linecap="butt" stroke-linejoin="miter" stroke="rgb(100%, 0%, 0%)" stroke-opacity="1" stroke-dasharray="4.5 4.5" stroke-miterlimit="2" d="M 79.855469 25 L 277 43 L 474.144531 223 "/>
<path fill-rule="nonzero" fill="rgb(100%, 0%, 0%)" fill-opacity="1" d="M 83.03125 25 C 83.03125 20.769531 76.683594 20.769531 76.683594 25 C 76.683594 29.230469 83.03125 29.230469 83.03125 25 Z M 83.03125 25 "/>
<path fill-rule="nonzero" fill="rgb(100%, 0%, 0%)" fill-opacity="1" d="M 280.171875 43 C 280.171875 38.769531 273.828125 38.769531 273.828125 43 C 273.828125 47.230469 280.171875 47.230469 280.171875 43 Z M 280.171875 43 "/>
<path fill-rule="nonzero" fill="rgb(100%, 0%, 0%)" fill-opacity="1" d="M 477.316406 223 C 477.316406 218.769531 470.96875 218.769531 470.96875 223 C 470.96875 227.230469 477.316406 227.230469 477.316406 223 Z M 477.316406 223 "/>
<path fill="none" stroke-width="1" stroke-linecap="butt" stroke-linejoin="miter" stroke="rgb(0%, 0%, 0%)" stroke-opacity="1" stroke-miterlimit="1.154701" d="M 79.855469 241.5 L 79.855469 246.5 "/>
<path fill="none" stroke-width="1" stroke-linecap="butt" stroke-linejoin="miter" stroke="rgb(0%, 0%, 0%)" stroke-opacity="1" stroke-miterlimit="1.154701" d="M 277 241.5 L 277 246.5 "/>
<path fill="none" stroke-width="1" stroke-linecap="butt" stroke-linejoin="miter" stroke="rgb(0%, 0%, 0%)" stroke-opacity="1" stroke-miterlimit="1.154701" d="M 474.144531 241.5 L 474.144531 246.5 "/>
<path fill="none" stroke-width="1" stroke-linecap="butt" stroke-linejoin="miter" stroke="rgb(0%, 0%, 0%)" stroke-opacity="1" stroke-miterlimit="1.154701" d="M 69.5 241 L 64.5 241 "/>
<path fill="none" stroke-width="1" stroke-linecap="butt" stroke-linejoin="miter" stroke="rgb(0%, 0%, 0%)" stroke-opacity="1" stroke-miterlimit="1.154701" d="M 69.5 196 L 64.5 196 "/>
<path fill="none" stroke-width="1" stroke-linecap="butt" stroke-linejoin="miter" stroke="rgb(0%, 0%, 0%)" stroke-opacity="1" stroke-miterlimit="1.154701" d="M 69.5 151 L 64.5 151 "/>
<path fill="none" stroke-width="1" stroke-linecap="butt" stroke-linejoin="miter" stroke="rgb(0%, 0%, 0%)" stroke-opacity="1" stroke-miterlimit="1.154701" d="M 69.5 106 L 64.5 106 "/>
<path fill="none" stroke-width="1" stroke-linecap="butt" stroke-linejoin="miter" stroke="rgb(0%, 0%, 0%)" stroke-opacity="1" stroke-miterlimit="1.154701" d="M 69.5 61 L 64.5 61 "/>
<path fill="none" stroke-width="1" stroke-linecap="butt" stroke-linejoin="miter" stroke="rgb(0%, 0%, 0%)" stroke-opacity="1" stroke-miterlimit="1.154701" d="M 69.5 16 L 64.5 16 "/>
<path fill="none" stroke-width="1" stroke-linecap="butt" stroke-linejoin="miter" stroke="rgb(0%, 0%, 0%)" stroke-opacity="1" stroke-miterlimit="1.154701" d="M 69.5 241 L 484.5 241 "/>
<path fill="none" stroke-width="1" stroke-linecap="butt" stroke-linejoin="miter" stroke="rgb(0%, 0%, 0%)" stroke-opacity="1" stroke-miterlimit="1.154701" d="M 70 241.5 L 70 15.5 "/>
<path fill="none" stroke-width="1" stroke-linecap="butt" stroke-linejoin="miter" stroke="rgb(0%, 0%, 0%)" stroke-opacity="1" stroke-miterlimit="1.154701" d="M 69.5 16 L 484.5 16 "/>
<path fill="none" stroke-width="1" stroke-linecap="butt" stroke-linejoin="miter" stroke="rgb(0%, 0%, 0%)" stroke-opacity="1" stroke-miterlimit="1.154701" d="M 484 241.5 L 484 15.5 "/>
</svg>
